<svg width="20" height="20" viewBox="0 0 20 20" fill="none" xmlns="http://www.w3.org/2000/svg">
<path fill-rule="evenodd" clip-rule="evenodd" d="M3.71004 2.29289C3.31951 1.90237 2.68635 1.90237 2.29582 2.29289C1.9053 2.68342 1.9053 3.31658 2.29582 3.70711L16.2958 17.7071C16.6863 18.0976 17.3195 18.0976 17.71 17.7071C18.1006 17.3166 18.1006 16.6834 17.71 16.2929L16.2369 14.8197C17.7744 13.5924 18.9419 11.9211 19.5453 9.99996C18.2711 5.94288 14.4808 3 10.0031 3C8.37958 3 6.84637 3.38692 5.49072 4.07358L3.71004 2.29289ZM7.97106 6.55391L9.48494 8.0678C9.65023 8.02358 9.82395 8 10.0032 8C11.1078 8 12.0032 8.89543 12.0032 10C12.0032 10.1792 11.9796 10.353 11.9354 10.5182L13.4493 12.0321C13.8012 11.4366 14.0032 10.7419 14.0032 10C14.0032 7.79086 12.2123 6 10.0032 6C9.26131 6 8.5666 6.20197 7.97106 6.55391Z" fill="#B3B3B3"/>
<path d="M12.457 16.6967L9.75258 13.9923C7.74306 13.8681 6.13513 12.2601 6.01091 10.2506L2.33785 6.57754C1.50356 7.57223 0.859298 8.73169 0.460938 10C1.73521 14.0571 5.5255 17 10.0031 17C10.8498 17 11.6719 16.8948 12.457 16.6967Z" fill="#B3B3B3"/>
</svg>
