<svg width="10" height="6" viewBox="0 0 10 6" fill="none" xmlns="http://www.w3.org/2000/svg">
<path d="M8.40313 0.256642C8.5957 0.112213 8.83391 0.0420937 9.07402 0.0591577C9.31413 0.0762218 9.54002 0.179323 9.71023 0.349534C9.88044 0.519746 9.98355 0.745643 10.0006 0.985752C10.0177 1.22586 9.94756 1.46407 9.80313 1.65664L5.80313 5.65664C5.6162 5.83987 5.36488 5.9425 5.10313 5.9425C4.84137 5.9425 4.59006 5.83987 4.40313 5.65664L0.403127 1.65664C0.258698 1.46407 0.188578 1.22586 0.205642 0.985752C0.222706 0.745643 0.325808 0.519746 0.49602 0.349534C0.666231 0.179323 0.892128 0.0762218 1.13224 0.0591577C1.37235 0.0420937 1.61055 0.112213 1.80313 0.256642L5.10313 3.54664L8.40313 0.246642V0.256642Z" fill="#71717A"/>
</svg>
