<svg width="19" height="11" viewBox="0 0 19 11" fill="none" xmlns="http://www.w3.org/2000/svg">
<path d="M15.898 0.373779C16.2713 0.103858 16.7331 -0.0271866 17.1987 0.00470421C17.6642 0.036595 18.1021 0.22928 18.4321 0.547385C18.7621 0.865491 18.962 1.28767 18.9951 1.7364C19.0282 2.18514 18.8923 2.63032 18.6122 2.99022L10.8571 10.4658C10.4947 10.8082 10.0075 11 9.5 11C8.99252 11 8.50527 10.8082 8.14286 10.4658L0.387758 2.99022C0.107743 2.63032 -0.0282033 2.18514 0.0048801 1.7364C0.0379635 1.28767 0.237856 0.865491 0.567857 0.547385C0.897858 0.22928 1.33582 0.036595 1.80134 0.00470421C2.26686 -0.0271866 2.72869 0.103858 3.10204 0.373779L9.5 6.52242L15.898 0.35509V0.373779Z" fill="#F76D11"/>
</svg>
