<svg width="24" height="25" viewBox="0 0 24 25" fill="none" xmlns="http://www.w3.org/2000/svg">
<path d="M16.19 2.5H7.81C4.17 2.5 2 4.67 2 8.31V16.68C2 20.33 4.17 22.5 7.81 22.5H16.18C19.82 22.5 21.99 20.33 21.99 16.69V8.31C22 4.67 19.83 2.5 16.19 2.5ZM16.88 12.03C16.88 12.42 16.57 12.73 16.18 12.73C15.79 12.73 15.48 12.42 15.48 12.03V11.85L12.76 14.57C12.61 14.72 12.41 14.79 12.2 14.77C11.99 14.75 11.8 14.64 11.69 14.46L10.67 12.94L8.29 15.32C8.15 15.46 7.98 15.52 7.8 15.52C7.62 15.52 7.44 15.45 7.31 15.32C7.04 15.05 7.04 14.61 7.31 14.33L10.29 11.35C10.44 11.2 10.64 11.13 10.85 11.15C11.06 11.17 11.25 11.28 11.36 11.46L12.38 12.98L14.49 10.87H14.31C13.92 10.87 13.61 10.56 13.61 10.17C13.61 9.78 13.92 9.47 14.31 9.47H16.17C16.26 9.47 16.35 9.49 16.44 9.52C16.61 9.59 16.75 9.73 16.82 9.9C16.86 9.99 16.87 10.08 16.87 10.17V12.03H16.88Z" fill="white"/>
</svg>
