<svg width="16" height="16" viewBox="0 0 16 16" fill="none" xmlns="http://www.w3.org/2000/svg">
<rect x="0.2" y="0.2" width="15.6" height="15.6" fill="#F76D11" stroke="white" stroke-width="0.4"/>
<path d="M4.31937 6.56904C4.01691 6.20412 3.61181 6.00219 3.19133 6.00676C2.77084 6.01132 2.36861 6.22201 2.07128 6.59345C1.77394 6.96488 1.60528 7.46735 1.60162 7.99262C1.59797 8.51789 1.75961 9.02393 2.05174 9.40177L5.25914 13.4084C5.55987 13.784 5.96771 13.995 6.39295 13.995C6.81819 13.995 7.22603 13.784 7.52676 13.4084L13.9416 5.39509C14.2337 5.01725 14.3953 4.5112 14.3917 3.98593C14.388 3.46066 14.2194 2.9582 13.922 2.58677C13.6247 2.21533 13.2225 2.00464 12.802 2.00008C12.3815 1.99551 11.9764 2.19744 11.6739 2.56236L6.39295 9.15936L4.31937 6.56904Z" fill="white"/>
</svg>
