<svg width="41" height="42" viewBox="0 0 41 42" fill="none" xmlns="http://www.w3.org/2000/svg">
<path fill-rule="evenodd" clip-rule="evenodd" d="M16.4015 8.69961C11.8728 8.69961 8.20155 12.3709 8.20155 16.8996C8.20155 21.4283 11.8728 25.0996 16.4015 25.0996C20.9302 25.0996 24.6015 21.4283 24.6015 16.8996C24.6015 12.3709 20.9302 8.69961 16.4015 8.69961ZM4.10156 16.8996C4.10156 10.1065 9.60844 4.59961 16.4015 4.59961C23.1946 4.59961 28.7015 10.1065 28.7015 16.8996C28.7015 19.5561 27.8594 22.0158 26.4275 24.0265L36.301 33.9C37.1016 34.7006 37.1016 35.9986 36.301 36.7992C35.5005 37.5998 34.2025 37.5998 33.4019 36.7992L23.5284 26.9256C21.5177 28.3575 19.058 29.1996 16.4015 29.1996C9.60844 29.1996 4.10156 23.6927 4.10156 16.8996Z" fill="#CCCCCC"/>
</svg>
