<svg width="67" height="67" viewBox="0 0 67 67" fill="none" xmlns="http://www.w3.org/2000/svg">
<path d="M33.5013 39.084C19.515 39.084 8.125 48.464 8.125 60.0215C8.125 60.8032 8.73917 61.4173 9.52083 61.4173H57.4817C58.2633 61.4173 58.8775 60.8032 58.8775 60.0215C58.8775 48.464 47.4875 39.084 33.5013 39.084Z" fill="#4DAE32"/>
<path d="M33.4974 5.58398C30.2032 5.58398 27.1882 6.72857 24.7874 8.65482C21.577 11.1952 19.5391 15.1315 19.5391 19.5423C19.5391 22.1665 20.2649 24.6231 21.577 26.7169C23.9778 30.7648 28.3886 33.5006 33.4974 33.5006C37.0149 33.5006 40.2253 32.2165 42.682 30.0111C43.7707 29.0898 44.7199 27.9731 45.4457 26.7169C46.7299 24.6231 47.4557 22.1665 47.4557 19.5423C47.4557 11.8373 41.2024 5.58398 33.4974 5.58398ZM40.7278 18.0348L33.2741 24.9023C32.7716 25.3769 32.1295 25.6002 31.4874 25.6002C30.8174 25.6002 30.1474 25.349 29.6449 24.8465L26.2111 21.3848C25.1782 20.3519 25.1782 18.7048 26.2111 17.6719C27.2441 16.639 28.8911 16.639 29.9241 17.6719L31.5711 19.319L37.1824 14.1544C38.2432 13.1773 39.8903 13.2332 40.8674 14.294C41.8445 15.3827 41.7886 17.0577 40.7278 18.0348Z" fill="#4DAE32"/>
</svg>
