<svg width="24" height="25" viewBox="0 0 24 25" fill="none" xmlns="http://www.w3.org/2000/svg">
<path d="M7 2.5H6C3 2.5 2 4.29 2 6.5V7.5V21.5C2 22.33 2.94 22.8 3.6 22.3L5.31 21.02C5.71 20.72 6.27 20.76 6.63 21.12L8.29 22.79C8.68 23.18 9.32 23.18 9.71 22.79L11.39 21.11C11.74 20.76 12.3 20.72 12.69 21.02L14.4 22.3C15.06 22.79 16 22.32 16 21.5V4.5C16 3.4 16.9 2.5 18 2.5H7ZM6.57 8.53C7.12 8.53 7.57 8.98 7.57 9.53C7.57 10.08 7.12 10.53 6.57 10.53C6.02 10.53 5.57 10.08 5.57 9.53C5.57 8.98 6.02 8.53 6.57 8.53ZM11.43 14.58C10.87 14.58 10.43 14.13 10.43 13.58C10.43 13.03 10.88 12.58 11.43 12.58C11.98 12.58 12.43 13.03 12.43 13.58C12.43 14.13 11.98 14.58 11.43 14.58ZM12.26 9.3L6.8 14.76C6.65 14.91 6.46 14.98 6.27 14.98C6.08 14.98 5.89 14.91 5.74 14.76C5.45 14.47 5.45 13.99 5.74 13.7L11.2 8.24C11.49 7.95 11.97 7.95 12.26 8.24C12.55 8.53 12.55 9.01 12.26 9.3Z" fill="white"/>
<path d="M18.01 2.5V4C18.67 4 19.3 4.27 19.76 4.72C20.24 5.21 20.5 5.84 20.5 6.5V8.92C20.5 9.66 20.17 10 19.42 10H17.5V4.51C17.5 4.23 17.73 4 18.01 4V2.5ZM18.01 2.5C16.9 2.5 16 3.4 16 4.51V11.5H19.42C21 11.5 22 10.5 22 8.92V6.5C22 5.4 21.55 4.4 20.83 3.67C20.1 2.95 19.11 2.51 18.01 2.5C18.02 2.5 18.01 2.5 18.01 2.5Z" fill="white"/>
</svg>
