<svg width="65" height="66" viewBox="0 0 65 66" fill="none" xmlns="http://www.w3.org/2000/svg">
<rect y="0.878906" width="65" height="65" rx="10" fill="#FEF9E7"/>
<path d="M58.2305 42.8594C58.9888 42.8594 59.5846 43.4552 59.5846 44.2135V46.9219C59.5846 51.4177 55.9555 55.0469 51.4596 55.0469C51.4596 50.5781 47.8034 46.9219 43.3346 46.9219C38.8659 46.9219 35.2096 50.5781 35.2096 55.0469H29.793C29.793 50.5781 26.1367 46.9219 21.668 46.9219C17.1992 46.9219 13.543 50.5781 13.543 55.0469C9.04714 55.0469 5.41797 51.4177 5.41797 46.9219V41.5052C5.41797 40.0156 6.63672 38.7969 8.1263 38.7969H33.8555C37.593 38.7969 40.6263 35.7635 40.6263 32.026V17.1302C40.6263 15.6406 41.8451 14.4219 43.3346 14.4219H45.6096C47.5596 14.4219 49.3471 15.4781 50.3221 17.1573L52.0555 20.1906C52.2992 20.624 51.9742 21.1927 51.4596 21.1927C47.7221 21.1927 44.6888 24.226 44.6888 27.9635V36.0885C44.6888 39.826 47.7221 42.8594 51.4596 42.8594H58.2305Z" fill="#C1A00B"/>
<path d="M21.6667 60.4622C24.6582 60.4622 27.0833 58.0371 27.0833 55.0456C27.0833 52.054 24.6582 49.6289 21.6667 49.6289C18.6751 49.6289 16.25 52.054 16.25 55.0456C16.25 58.0371 18.6751 60.4622 21.6667 60.4622Z" fill="#C1A00B"/>
<path d="M43.3346 60.4622C46.3262 60.4622 48.7513 58.0371 48.7513 55.0456C48.7513 52.054 46.3262 49.6289 43.3346 49.6289C40.3431 49.6289 37.918 52.054 37.918 55.0456C37.918 58.0371 40.3431 60.4622 43.3346 60.4622Z" fill="#C1A00B"/>
<path d="M59.5833 34.8143V38.7956H51.4583C49.9687 38.7956 48.75 37.5768 48.75 36.0872V27.9622C48.75 26.4727 49.9687 25.2539 51.4583 25.2539H54.9521L58.8792 32.1331C59.3396 32.9456 59.5833 33.8664 59.5833 34.8143Z" fill="#C1A00B"/>
<path d="M35.4224 6.29688H15.4078C10.5599 6.29688 6.4974 9.76354 5.60365 14.3677H17.4391C18.4682 14.3677 19.2807 15.2073 19.2807 16.2365C19.2807 17.2656 18.4682 18.0781 17.4391 18.0781H5.41406V21.8156H12.4557C13.4849 21.8156 14.3245 22.6552 14.3245 23.6844C14.3245 24.7135 13.4849 25.526 12.4557 25.526H5.41406V29.2635H7.49948C8.52865 29.2635 9.36823 30.1031 9.36823 31.1323C9.36823 32.1615 8.52865 32.974 7.49948 32.974H5.41406V33.5969C5.41406 35.0865 6.63281 36.3052 8.1224 36.3052H32.9036C35.6661 36.3052 37.9141 34.0573 37.9141 31.2948V8.78854C37.9141 7.40729 36.8036 6.29688 35.4224 6.29688Z" fill="#C1A00B"/>
<path d="M5.60495 14.3672H5.1987H2.54453C1.51536 14.3672 0.675781 15.2068 0.675781 16.2359C0.675781 17.2651 1.51536 18.0776 2.54453 18.0776H5.00911H5.41536V16.2901C5.41536 15.6401 5.49661 14.9901 5.60495 14.3672Z" fill="#C1A00B"/>
<path d="M5.00911 21.8164H2.54453C1.51536 21.8164 0.675781 22.656 0.675781 23.6852C0.675781 24.7143 1.51536 25.5268 2.54453 25.5268H5.00911H5.41536V21.8164H5.00911Z" fill="#C1A00B"/>
<path d="M5.00911 29.2617H2.54453C1.51536 29.2617 0.675781 30.1013 0.675781 31.1305C0.675781 32.1596 1.51536 32.9721 2.54453 32.9721H5.00911H5.41536V29.2617H5.00911Z" fill="#C1A00B"/>
</svg>
