<svg width="34" height="34" viewBox="0 0 34 34" fill="none" xmlns="http://www.w3.org/2000/svg">
<path d="M25.3861 14.6025C24.9186 14.4925 24.4228 14.4375 23.9128 14.4375C20.2011 14.4375 17.1836 17.3663 17.1836 20.9688C17.1836 22.1925 17.5378 23.3475 18.1611 24.3375C18.6853 25.19 19.4078 25.9187 20.2861 26.4412C21.3344 27.115 22.5811 27.5 23.9128 27.5C26.3778 27.5 28.5169 26.2213 29.6786 24.3375C30.3019 23.3475 30.6419 22.1925 30.6419 20.9688C30.6419 17.8612 28.4036 15.2487 25.3861 14.6025ZM27.2703 20.1163L23.6719 23.3337C23.4736 23.5125 23.2044 23.6088 22.9494 23.6088C22.6803 23.6088 22.4111 23.5125 22.1986 23.3063L20.5411 21.6975C20.1303 21.2987 20.1303 20.6388 20.5411 20.24C20.9519 19.8413 21.6319 19.8413 22.0428 20.24L22.9778 21.1475L25.8253 18.6037C26.2644 18.2187 26.9303 18.2462 27.3269 18.6587C27.7236 19.085 27.6953 19.7313 27.2703 20.1163Z" fill="#CCCCCC"/>
<path d="M29.1538 6.215V9.2675C29.1538 10.3812 28.4454 11.77 27.7371 12.4712L27.4821 12.6912C27.2838 12.87 26.9863 12.9113 26.7313 12.8287C26.4479 12.7325 26.1646 12.6637 25.8813 12.595C25.2579 12.4437 24.5921 12.375 23.9121 12.375C19.0246 12.375 15.0579 16.225 15.0579 20.9688C15.0579 22.5362 15.4971 24.0762 16.3329 25.3962C17.0413 26.5512 18.0329 27.5138 19.1096 28.16C19.4354 28.3662 19.5629 28.8062 19.2796 29.0537C19.1804 29.1362 19.0813 29.205 18.9821 29.2738L16.9988 30.525C15.1571 31.6388 12.6213 30.3875 12.6213 28.16V20.8038C12.6213 19.8275 12.0546 18.5763 11.4879 17.8888L6.11875 12.3338C5.41042 11.6325 4.84375 10.3812 4.84375 9.55625V6.3525C4.84375 4.68875 6.11875 3.4375 7.66292 3.4375H26.3346C27.8788 3.4375 29.1538 4.68875 29.1538 6.215Z" fill="#CCCCCC"/>
</svg>
