<svg width="24" height="25" viewBox="0 0 24 25" fill="none" xmlns="http://www.w3.org/2000/svg">
<path d="M19.24 6.07859H18.84L15.46 2.69859C15.19 2.42859 14.75 2.42859 14.47 2.69859C14.2 2.96859 14.2 3.40859 14.47 3.68859L16.86 6.07859H7.14L9.53 3.68859C9.8 3.41859 9.8 2.97859 9.53 2.69859C9.26 2.42859 8.82 2.42859 8.54 2.69859L5.17 6.07859H4.77C3.87 6.07859 2 6.07859 2 8.63859C2 9.60859 2.2 10.2486 2.62 10.6686C2.86 10.9186 3.15 11.0486 3.46 11.1186C3.75 11.1886 4.06 11.1986 4.36 11.1986H19.64C19.95 11.1986 20.24 11.1786 20.52 11.1186C21.36 10.9186 22 10.3186 22 8.63859C22 6.07859 20.13 6.07859 19.24 6.07859Z" fill="white"/>
<path d="M19.0506 12.5H4.87064C4.25064 12.5 3.78064 13.05 3.88064 13.66L4.72064 18.8C5.00064 20.52 5.75064 22.5 9.08064 22.5H14.6906C18.0606 22.5 18.6606 20.81 19.0206 18.92L20.0306 13.69C20.1506 13.07 19.6806 12.5 19.0506 12.5ZM10.6106 18.95C10.6106 19.34 10.3006 19.65 9.92064 19.65C9.53064 19.65 9.22064 19.34 9.22064 18.95V15.65C9.22064 15.27 9.53064 14.95 9.92064 14.95C10.3006 14.95 10.6106 15.27 10.6106 15.65V18.95ZM14.8906 18.95C14.8906 19.34 14.5806 19.65 14.1906 19.65C13.8106 19.65 13.4906 19.34 13.4906 18.95V15.65C13.4906 15.27 13.8106 14.95 14.1906 14.95C14.5806 14.95 14.8906 15.27 14.8906 15.65V18.95Z" fill="white"/>
</svg>
