<svg width="67" height="68" viewBox="0 0 67 68" fill="none" xmlns="http://www.w3.org/2000/svg">
<path d="M52.1764 33.0679C50.5851 32.6491 48.7147 32.4258 46.4814 32.4258C43.3826 32.4258 42.238 33.1795 40.6468 34.3799C40.563 34.4358 40.4793 34.5195 40.3955 34.6033L37.7434 37.4229C35.5101 39.7679 31.4901 39.7958 29.2568 37.3949L26.6047 34.6033C26.5209 34.5195 26.4372 34.4358 26.3534 34.3799C24.7622 33.1795 23.6176 32.4258 20.5189 32.4258C18.2855 32.4258 16.4151 32.6491 14.8239 33.0679C8.17969 34.8545 8.17969 40.1308 8.17969 44.7649V47.3612C8.17969 54.3683 8.17969 62.2966 23.1151 62.2966H43.8851C53.7955 62.2966 58.8205 57.2716 58.8205 47.3612V44.7649C58.8205 40.1308 58.8205 34.8545 52.1764 33.0679ZM40.0047 52.2466H26.9955C25.9347 52.2466 25.0693 51.3812 25.0693 50.2924C25.0693 49.2037 25.9347 48.3383 26.9955 48.3383H40.0047C41.0655 48.3383 41.9309 49.2037 41.9309 50.2924C41.9309 51.3812 41.0655 52.2466 40.0047 52.2466Z" fill="#2564EB"/>
<path d="M35.3696 12.8818L37.1842 14.6964C37.91 15.4222 39.1105 15.4222 39.8363 14.6964C40.5621 13.9705 40.5621 12.7701 39.8363 12.0443L34.8113 7.01927C34.6438 6.85177 34.4205 6.71219 34.1971 6.60052C33.9738 6.51677 33.7505 6.46094 33.4992 6.46094C33.248 6.46094 33.0246 6.51677 32.7734 6.60052C32.5501 6.68427 32.3826 6.82385 32.2151 6.96344C32.1871 6.99135 32.1871 6.99135 32.1592 6.99135L27.1342 12.0443C26.4084 12.7701 26.4084 13.9705 27.1342 14.6964C27.8601 15.4222 29.0605 15.4222 29.7863 14.6964L31.6009 12.8818V17.6276H35.3696V12.8818Z" fill="#2564EB"/>
<path d="M53.6269 29.1306C53.5153 29.0747 53.3757 29.0468 53.264 29.0189H53.2361C51.254 28.4885 49.0486 28.2372 46.4803 28.2372C42.1811 28.2372 40.1432 29.4935 38.3007 30.8893C37.9098 31.1685 37.6307 31.4477 37.3515 31.7268L34.6994 34.5464C34.4203 34.8256 33.9736 34.9931 33.499 34.9931C33.3315 34.9931 32.7173 34.9652 32.2986 34.5185L29.5628 31.6431C29.2836 31.336 28.9486 31.0847 28.8648 31.0289C26.8548 29.4935 24.8169 28.2372 20.5178 28.2372C17.9494 28.2372 15.744 28.4885 13.734 29.0189C13.6223 29.0468 13.4828 29.0747 13.3711 29.1306C13.399 23.5752 13.9573 17.6289 25.7103 17.6289H31.6286V26.2272C31.6286 27.2602 32.4661 28.0977 33.499 28.0977C34.5319 28.0977 35.3694 27.2602 35.3694 26.2272V17.6289H41.2878C53.0407 17.6289 53.599 23.5752 53.6269 29.1306Z" fill="#2564EB"/>
</svg>
