<svg width="46" height="45" viewBox="0 0 46 45" fill="none" xmlns="http://www.w3.org/2000/svg">
<path d="M36.5878 27.4268L36.5891 27.4289C37.2406 28.4981 37.3561 29.7622 36.9232 30.9112C36.4873 32.0679 35.5866 32.9487 34.4225 33.3312L34.4197 33.3322C30.8353 34.5331 27.0641 35.125 23.2911 35.125C19.5181 35.125 15.7477 34.5331 12.1646 33.3141L12.1636 33.3138C10.899 32.8866 9.95922 32.011 9.56802 30.9189L9.56803 30.9189L9.56659 30.915C9.15581 29.7976 9.29492 28.5675 9.97595 27.4262C9.97617 27.4258 9.97639 27.4254 9.97662 27.4251L11.8689 24.2963L11.8689 24.2963L11.8729 24.2894C12.1005 23.8994 12.302 23.3562 12.4462 22.8257C12.5903 22.2956 12.6911 21.7276 12.6911 21.2812V16.5375C12.6911 12.3865 15.1064 8.78612 18.6012 7.04767L18.7396 6.97886L18.815 6.84402C19.7028 5.25608 21.3747 4.25 23.2348 4.25C25.1179 4.25 26.7512 5.22249 27.637 6.78978L27.7146 6.92704L27.8569 6.99497C31.4217 8.69678 33.8911 12.3321 33.8911 16.5375V21.2812C33.8911 21.7276 33.9918 22.2955 34.1358 22.8275C34.2801 23.3606 34.4809 23.9061 34.7062 24.3031L34.7061 24.3031L34.7128 24.3143L36.5878 27.4268Z" fill="#F76D11" stroke="#F76D11"/>
<path d="M19.6154 39.2165C19.2816 38.9036 18.9963 38.5208 18.7707 38.1057C19.1657 38.1567 19.5816 38.2071 19.9996 38.2419C21.0799 38.3367 22.1818 38.3937 23.2859 38.3937C24.372 38.3937 25.4558 38.3366 26.5179 38.2418L26.5179 38.2418L26.5208 38.2415C26.6321 38.2309 26.7508 38.2214 26.8733 38.2116C27.145 38.1899 27.4352 38.1666 27.7039 38.1266C27.7122 38.1256 27.7204 38.1246 27.7287 38.1235C26.8445 39.6917 25.1663 40.75 23.2484 40.75C21.8983 40.75 20.5671 40.2019 19.6332 39.2341L19.6245 39.2251L19.6154 39.2165Z" fill="#F76D11" stroke="#F76D11"/>
</svg>
