<svg width="67" height="67" viewBox="0 0 67 67" fill="none" xmlns="http://www.w3.org/2000/svg">
<path d="M33.5013 39.084C19.515 39.084 8.125 48.464 8.125 60.0215C8.125 60.8032 8.73917 61.4173 9.52083 61.4173H57.4817C58.2633 61.4173 58.8775 60.8032 58.8775 60.0215C58.8775 48.464 47.4875 39.084 33.5013 39.084Z" fill="#EF4444"/>
<path d="M47.0386 16.1926C46.7036 14.8247 46.1453 13.4847 45.3636 12.2564C44.8332 11.3631 44.1353 10.4697 43.3815 9.68805C40.869 7.17555 37.6028 5.80764 34.2528 5.64014C30.4561 5.38889 26.5757 6.78472 23.6444 9.68805C20.8807 12.4239 19.4848 16.081 19.5407 19.766C19.5686 23.2556 20.9644 26.7451 23.6165 29.4251C25.459 31.2676 27.7203 32.496 30.149 33.0543C31.4611 33.3893 32.8569 33.5568 34.2528 33.4451C37.5748 33.3056 40.8132 31.9935 43.3536 29.4251C46.9548 25.8239 48.1832 20.771 47.0386 16.1926ZM39.0823 25.126C38.0773 26.131 36.4023 26.131 35.3973 25.126L33.4711 23.1997L31.6286 25.0422C30.6236 26.0472 28.9486 26.0472 27.9436 25.0422C26.9107 24.0093 26.9107 22.3622 27.9157 21.3572L29.7582 19.5147L27.9715 17.7839C26.9665 16.751 26.9665 15.1039 27.9715 14.0431C29.0044 13.0381 30.6515 13.0381 31.7123 14.0431L33.4432 15.8297L35.3136 13.9593C36.3186 12.9543 37.9657 12.9543 38.9986 13.9593C40.0036 14.9643 40.0036 16.6393 38.9986 17.6443L37.1561 19.4868L39.0823 21.441C40.0873 22.446 40.0873 24.121 39.0823 25.126Z" fill="#EF4444"/>
</svg>
