<svg width="42" height="42" viewBox="0 0 42 42" fill="none" xmlns="http://www.w3.org/2000/svg">
<path d="M31.3591 17.71C30.7816 17.57 30.1691 17.5 29.5391 17.5C24.9541 17.5 21.2266 21.2275 21.2266 25.8125C21.2266 27.37 21.6641 28.84 22.4341 30.1C23.0816 31.185 23.9741 32.1125 25.0591 32.7775C26.3541 33.635 27.8941 34.125 29.5391 34.125C32.5841 34.125 35.2266 32.4975 36.6616 30.1C37.4316 28.84 37.8516 27.37 37.8516 25.8125C37.8516 21.8575 35.0866 18.5325 31.3591 17.71ZM33.6866 24.7275L29.2416 28.8225C28.9966 29.05 28.6641 29.1725 28.3491 29.1725C28.0166 29.1725 27.6841 29.05 27.4216 28.7875L25.3741 26.74C24.8666 26.2325 24.8666 25.3925 25.3741 24.885C25.8816 24.3775 26.7216 24.3775 27.2291 24.885L28.3841 26.04L31.9016 22.8025C32.4441 22.3125 33.2666 22.3475 33.7566 22.8725C34.2466 23.415 34.2116 24.2375 33.6866 24.7275Z" fill="#CCCCCC"/>
<path d="M36.0144 7.035V10.92C36.0144 12.3375 35.1394 14.105 34.2644 14.9975L33.9494 15.2775C33.7044 15.505 33.3369 15.5575 33.0219 15.4525C32.6719 15.33 32.3219 15.2425 31.9719 15.155C31.2019 14.9625 30.3794 14.875 29.5394 14.875C23.5019 14.875 18.6019 19.775 18.6019 25.8125C18.6019 27.8075 19.1444 29.7675 20.1769 31.4475C21.0519 32.9175 22.2769 34.1425 23.6069 34.965C24.0094 35.2275 24.1669 35.7875 23.8169 36.1025C23.6944 36.2075 23.5719 36.295 23.4494 36.3825L20.9994 37.975C18.7244 39.3925 15.5919 37.8 15.5919 34.965V25.6025C15.5919 24.36 14.8919 22.7675 14.1919 21.8925L7.55938 14.8225C6.68438 13.93 5.98438 12.3375 5.98438 11.2875V7.21C5.98438 5.0925 7.55937 3.5 9.46687 3.5H32.5319C34.4394 3.5 36.0144 5.0925 36.0144 7.035Z" fill="#CCCCCC"/>
</svg>
