<svg width="34" height="34" viewBox="0 0 34 34" fill="none" xmlns="http://www.w3.org/2000/svg">
<path d="M25.3861 14.2939C24.9186 14.1839 24.4228 14.1289 23.9128 14.1289C20.2011 14.1289 17.1836 17.0577 17.1836 20.6602C17.1836 21.8839 17.5378 23.0389 18.1611 24.0289C18.6853 24.8814 19.4078 25.6102 20.2861 26.1327C21.3344 26.8064 22.5811 27.1914 23.9128 27.1914C26.3778 27.1914 28.5169 25.9127 29.6786 24.0289C30.3019 23.0389 30.6419 21.8839 30.6419 20.6602C30.6419 17.5527 28.4036 14.9402 25.3861 14.2939ZM27.2703 19.8077L23.6719 23.0252C23.4736 23.2039 23.2044 23.3002 22.9494 23.3002C22.6803 23.3002 22.4111 23.2039 22.1986 22.9977L20.5411 21.3889C20.1303 20.9902 20.1303 20.3302 20.5411 19.9314C20.9519 19.5327 21.6319 19.5327 22.0428 19.9314L22.9778 20.8389L25.8253 18.2952C26.2644 17.9102 26.9303 17.9377 27.3269 18.3502C27.7236 18.7764 27.6953 19.4227 27.2703 19.8077Z" fill="#CCCCCC"/>
<path d="M29.1538 5.90641V8.95891C29.1538 10.0727 28.4454 11.4614 27.7371 12.1627L27.4821 12.3827C27.2838 12.5614 26.9863 12.6027 26.7313 12.5202C26.4479 12.4239 26.1646 12.3552 25.8813 12.2864C25.2579 12.1352 24.5921 12.0664 23.9121 12.0664C19.0246 12.0664 15.0579 15.9164 15.0579 20.6602C15.0579 22.2277 15.4971 23.7677 16.3329 25.0877C17.0413 26.2427 18.0329 27.2052 19.1096 27.8514C19.4354 28.0577 19.5629 28.4977 19.2796 28.7452C19.1804 28.8277 19.0813 28.8964 18.9821 28.9652L16.9988 30.2164C15.1571 31.3302 12.6213 30.0789 12.6213 27.8514V20.4952C12.6213 19.5189 12.0546 18.2677 11.4879 17.5802L6.11875 12.0252C5.41042 11.3239 4.84375 10.0727 4.84375 9.24766V6.04391C4.84375 4.38016 6.11875 3.12891 7.66292 3.12891H26.3346C27.8788 3.12891 29.1538 4.38016 29.1538 5.90641Z" fill="#CCCCCC"/>
</svg>
