<svg width="67" height="67" viewBox="0 0 67 67" fill="none" xmlns="http://www.w3.org/2000/svg">
<path d="M33.5013 41.875C19.515 41.875 8.125 51.255 8.125 62.8125C8.125 63.5942 8.73917 64.2083 9.52083 64.2083H57.4817C58.2633 64.2083 58.8775 63.5942 58.8775 62.8125C58.8775 51.255 47.4875 41.875 33.5013 41.875Z" fill="#F76D11"/>
<path d="M43.8545 10.2182C41.342 7.37065 37.6011 5.58398 33.4974 5.58398C29.5891 5.58398 26.0157 7.17523 23.4753 9.7994C21.0466 12.3119 19.5391 15.7736 19.5391 19.5423C19.5391 22.1665 20.2649 24.6231 21.577 26.7169C22.2749 27.9173 23.1682 29.0061 24.2291 29.8994C26.6578 32.1327 29.8961 33.5006 33.4974 33.5006C38.6061 33.5006 43.017 30.7648 45.4457 26.7169C46.1716 25.5165 46.7299 24.1765 47.037 22.7806C47.3161 21.7477 47.4557 20.659 47.4557 19.5423C47.4557 15.969 46.0878 12.7027 43.8545 10.2182ZM38.7178 22.1107H36.1216V24.8186C36.1216 26.2702 34.9491 27.4427 33.4974 27.4427C32.0457 27.4427 30.8732 26.2702 30.8732 24.8186V22.1107H28.277C26.8253 22.1107 25.6528 20.9382 25.6528 19.4865C25.6528 18.0348 26.8253 16.8623 28.277 16.8623H30.8732V14.3777C30.8732 12.9261 32.0457 11.7536 33.4974 11.7536C34.9491 11.7536 36.1216 12.9261 36.1216 14.3777V16.8623H38.7178C40.1695 16.8623 41.342 18.0348 41.342 19.4865C41.342 20.9382 40.1695 22.1107 38.7178 22.1107Z" fill="#F76D11"/>
</svg>
