<svg width="24" height="25" viewBox="0 0 24 25" fill="none" xmlns="http://www.w3.org/2000/svg">
<path d="M17.5291 8.27C17.4591 8.26 17.3891 8.26 17.3191 8.27C15.7691 8.22 14.5391 6.95 14.5391 5.39C14.5391 3.8 15.8291 2.5 17.4291 2.5C19.0191 2.5 20.3191 3.79 20.3191 5.39C20.3091 6.95 19.0791 8.22 17.5291 8.27Z" fill="white"/>
<path d="M20.7916 15.2004C19.6716 15.9504 18.1016 16.2304 16.6516 16.0404C17.0316 15.2204 17.2316 14.3104 17.2416 13.3504C17.2416 12.3504 17.0216 11.4004 16.6016 10.5704C18.0816 10.3704 19.6516 10.6504 20.7816 11.4004C22.3616 12.4404 22.3616 14.1504 20.7916 15.2004Z" fill="white"/>
<path d="M6.44016 8.27C6.51016 8.26 6.58016 8.26 6.65016 8.27C8.20016 8.22 9.43016 6.95 9.43016 5.39C9.43016 3.79 8.14016 2.5 6.54016 2.5C4.95016 2.5 3.66016 3.79 3.66016 5.39C3.66016 6.95 4.89016 8.22 6.44016 8.27Z" fill="white"/>
<path d="M6.55109 13.3506C6.55109 14.3206 6.76109 15.2406 7.14109 16.0706C5.73109 16.2206 4.26109 15.9206 3.18109 15.2106C1.60109 14.1606 1.60109 12.4506 3.18109 11.4006C4.25109 10.6806 5.76109 10.3906 7.18109 10.5506C6.77109 11.3906 6.55109 12.3406 6.55109 13.3506Z" fill="white"/>
<path d="M12.1208 16.37C12.0408 16.36 11.9508 16.36 11.8608 16.37C10.0208 16.31 8.55078 14.8 8.55078 12.94C8.56078 11.04 10.0908 9.5 12.0008 9.5C13.9008 9.5 15.4408 11.04 15.4408 12.94C15.4308 14.8 13.9708 16.31 12.1208 16.37Z" fill="white"/>
<path d="M8.87078 18.4406C7.36078 19.4506 7.36078 21.1106 8.87078 22.1106C10.5908 23.2606 13.4108 23.2606 15.1308 22.1106C16.6408 21.1006 16.6408 19.4406 15.1308 18.4406C13.4208 17.2906 10.6008 17.2906 8.87078 18.4406Z" fill="white"/>
</svg>
