<svg width="24" height="24" viewBox="0 0 24 24" fill="none" xmlns="http://www.w3.org/2000/svg">
<path d="M22.3596 8.27L22.0696 5.5C21.6496 2.48 20.2796 1.25 17.3497 1.25H14.9896H13.5097H10.4697H8.98965H6.58965C3.64965 1.25 2.28965 2.48 1.85965 5.53L1.58965 8.28C1.48965 9.35 1.77965 10.39 2.40965 11.2C3.16965 12.19 4.33965 12.75 5.63965 12.75C6.89965 12.75 8.10965 12.12 8.86965 11.11C9.54965 12.12 10.7097 12.75 11.9997 12.75C13.2896 12.75 14.4197 12.15 15.1096 11.15C15.8797 12.14 17.0696 12.75 18.3096 12.75C19.6396 12.75 20.8396 12.16 21.5896 11.12C22.1896 10.32 22.4597 9.31 22.3596 8.27Z" fill="#190A01"/>
<path d="M11.3472 16.6602C10.0772 16.7902 9.11719 17.8702 9.11719 19.1502V21.8902C9.11719 22.1602 9.33719 22.3802 9.60719 22.3802H14.3772C14.6472 22.3802 14.8672 22.1602 14.8672 21.8902V19.5002C14.8772 17.4102 13.6472 16.4202 11.3472 16.6602Z" fill="#190A01"/>
<path d="M21.3728 14.4001V17.3801C21.3728 20.1401 19.1328 22.3801 16.3728 22.3801C16.1028 22.3801 15.8828 22.1601 15.8828 21.8901V19.5001C15.8828 18.2201 15.4928 17.2201 14.7328 16.5401C14.0628 15.9301 13.1528 15.6301 12.0228 15.6301C11.7728 15.6301 11.5228 15.6401 11.2528 15.6701C9.47281 15.8501 8.12281 17.3501 8.12281 19.1501V21.8901C8.12281 22.1601 7.90281 22.3801 7.63281 22.3801C4.87281 22.3801 2.63281 20.1401 2.63281 17.3801V14.4201C2.63281 13.7201 3.32281 13.2501 3.97281 13.4801C4.24281 13.5701 4.51281 13.6401 4.79281 13.6801C4.91281 13.7001 5.04281 13.7201 5.16281 13.7201C5.32281 13.7401 5.48281 13.7501 5.64281 13.7501C6.80281 13.7501 7.94281 13.3201 8.84281 12.5801C9.70281 13.3201 10.8228 13.7501 12.0028 13.7501C13.1928 13.7501 14.2928 13.3401 15.1528 12.6001C16.0528 13.3301 17.1728 13.7501 18.3128 13.7501C18.4928 13.7501 18.6728 13.7401 18.8428 13.7201C18.9628 13.7101 19.0728 13.7001 19.1828 13.6801C19.4928 13.6401 19.7728 13.5501 20.0528 13.4601C20.7028 13.2401 21.3728 13.7201 21.3728 14.4001Z" fill="#190A01"/>
</svg>
