<svg width="24" height="24" viewBox="0 0 24 24" fill="none" xmlns="http://www.w3.org/2000/svg">
<rect width="24" height="24" fill="white"/>
<path d="M10.6 4.15C10.6 4.34 10.44 4.5 10.25 4.5H9.12C6.96 4.5 5.2 6.26 5.2 8.42V17.65C5.2 17.84 5.04 18 4.85 18H4.15C2.96 18 2 17.04 2 15.85V4.15C2 2.96 2.96 2 4.15 2H8.45C9.64 2 10.6 2.96 10.6 4.15Z" fill="#190A01"/>
<path d="M21.9984 4.15V15.85C21.9984 17.04 21.0384 18 19.8484 18H19.2184C19.0284 18 18.8684 17.84 18.8684 17.65V8.42C18.8684 6.26 17.1084 4.5 14.9484 4.5H13.7484C13.5584 4.5 13.3984 4.34 13.3984 4.15C13.3984 2.96 14.3584 2 15.5484 2H19.8484C21.0384 2 21.9984 2.96 21.9984 4.15Z" fill="#190A01"/>
<path d="M14.9531 6H9.12313C7.78313 6 6.70312 7.08 6.70312 8.42V19.58C6.70312 20.92 7.78313 22 9.12313 22H10.7531C11.0331 22 11.2531 21.78 11.2531 21.5V19C11.2531 18.59 11.5931 18.25 12.0031 18.25C12.4131 18.25 12.7531 18.59 12.7531 19V21.5C12.7531 21.78 12.9731 22 13.2531 22H14.9631C16.2931 22 17.3731 20.92 17.3731 19.59V8.42C17.3731 7.08 16.2931 6 14.9531 6ZM14.0031 14.75H10.0031C9.59313 14.75 9.25313 14.41 9.25313 14C9.25313 13.59 9.59313 13.25 10.0031 13.25H14.0031C14.4131 13.25 14.7531 13.59 14.7531 14C14.7531 14.41 14.4131 14.75 14.0031 14.75ZM14.0031 11.75H10.0031C9.59313 11.75 9.25313 11.41 9.25313 11C9.25313 10.59 9.59313 10.25 10.0031 10.25H14.0031C14.4131 10.25 14.7531 10.59 14.7531 11C14.7531 11.41 14.4131 11.75 14.0031 11.75Z" fill="#190A01"/>
</svg>
