<svg width="24" height="25" viewBox="0 0 24 25" fill="none" xmlns="http://www.w3.org/2000/svg">
<path d="M21.5 16C21.78 16 22 16.22 22 16.5V17.5C22 19.16 20.66 20.5 19 20.5C19 18.85 17.65 17.5 16 17.5C14.35 17.5 13 18.85 13 20.5H11C11 18.85 9.65 17.5 8 17.5C6.35 17.5 5 18.85 5 20.5C3.34 20.5 2 19.16 2 17.5V15.5C2 14.95 2.45 14.5 3 14.5H12.5C13.88 14.5 15 13.38 15 12V6.5C15 5.95 15.45 5.5 16 5.5H16.84C17.56 5.5 18.22 5.89 18.58 6.51L19.22 7.63C19.31 7.79 19.19 8 19 8C17.62 8 16.5 9.12 16.5 10.5V13.5C16.5 14.88 17.62 16 19 16H21.5Z" fill="white"/>
<path d="M8 22.5C9.10457 22.5 10 21.6046 10 20.5C10 19.3954 9.10457 18.5 8 18.5C6.89543 18.5 6 19.3954 6 20.5C6 21.6046 6.89543 22.5 8 22.5Z" fill="white"/>
<path d="M16 22.5C17.1046 22.5 18 21.6046 18 20.5C18 19.3954 17.1046 18.5 16 18.5C14.8954 18.5 14 19.3954 14 20.5C14 21.6046 14.8954 22.5 16 22.5Z" fill="white"/>
<path d="M22 13.03V14.5H19C18.45 14.5 18 14.05 18 13.5V10.5C18 9.95 18.45 9.5 19 9.5H20.29L21.74 12.04C21.91 12.34 22 12.68 22 13.03Z" fill="white"/>
<path d="M13.08 2.48047H5.69C3.65 2.48047 2 4.13047 2 6.17047V12.5605C2 13.1105 2.45 13.5605 3 13.5605H12.15C13.17 13.5605 14 12.7305 14 11.7105V3.40047C14 2.89047 13.59 2.48047 13.08 2.48047ZM9.6 9.60047C9.45 9.74047 9.26 9.81047 9.07 9.81047C8.88 9.81047 8.69 9.74047 8.54 9.60047L8.01 9.07047L7.46 9.62047C7.31 9.77047 7.12 9.84047 6.93 9.84047C6.74 9.84047 6.55 9.77047 6.4 9.62047C6.11 9.33047 6.11 8.85047 6.4 8.56047L6.95 8.01047L6.42 7.48047C6.13 7.19047 6.13 6.71047 6.42 6.42047C6.72 6.13047 7.19 6.13047 7.49 6.42047L8.01 6.95047L8.51 6.44047C8.81 6.15047 9.28 6.15047 9.58 6.44047C9.87 6.74047 9.87 7.21047 9.58 7.51047L9.07 8.01047L9.6 8.53047C9.89 8.83047 9.89 9.30047 9.6 9.60047Z" fill="white"/>
</svg>
