<svg width="42" height="43" viewBox="0 0 42 43" fill="none" xmlns="http://www.w3.org/2000/svg">
<path d="M31.3591 18.587C30.7816 18.447 30.1691 18.377 29.5391 18.377C24.9541 18.377 21.2266 22.1045 21.2266 26.6895C21.2266 28.247 21.6641 29.717 22.4341 30.977C23.0816 32.062 23.9741 32.9895 25.0591 33.6545C26.3541 34.512 27.8941 35.002 29.5391 35.002C32.5841 35.002 35.2266 33.3745 36.6616 30.977C37.4316 29.717 37.8516 28.247 37.8516 26.6895C37.8516 22.7345 35.0866 19.4095 31.3591 18.587ZM33.6866 25.6045L29.2416 29.6995C28.9966 29.927 28.6641 30.0495 28.3491 30.0495C28.0166 30.0495 27.6841 29.927 27.4216 29.6645L25.3741 27.617C24.8666 27.1095 24.8666 26.2695 25.3741 25.762C25.8816 25.2545 26.7216 25.2545 27.2291 25.762L28.3841 26.917L31.9016 23.6795C32.4441 23.1895 33.2666 23.2245 33.7566 23.7495C34.2466 24.292 34.2116 25.1145 33.6866 25.6045Z" fill="#CCCCCC"/>
<path d="M36.0144 7.91195V11.797C36.0144 13.2145 35.1394 14.982 34.2644 15.8745L33.9494 16.1545C33.7044 16.382 33.3369 16.4345 33.0219 16.3295C32.6719 16.207 32.3219 16.1195 31.9719 16.032C31.2019 15.8395 30.3794 15.752 29.5394 15.752C23.5019 15.752 18.6019 20.652 18.6019 26.6895C18.6019 28.6845 19.1444 30.6445 20.1769 32.3245C21.0519 33.7945 22.2769 35.0195 23.6069 35.842C24.0094 36.1045 24.1669 36.6645 23.8169 36.9795C23.6944 37.0844 23.5719 37.172 23.4494 37.2595L20.9994 38.852C18.7244 40.2695 15.5919 38.677 15.5919 35.842V26.4795C15.5919 25.237 14.8919 23.6445 14.1919 22.7695L7.55938 15.6995C6.68438 14.807 5.98438 13.2145 5.98438 12.1645V8.08695C5.98438 5.96945 7.55937 4.37695 9.46687 4.37695H32.5319C34.4394 4.37695 36.0144 5.96945 36.0144 7.91195Z" fill="#CCCCCC"/>
</svg>
