<svg width="24" height="25" viewBox="0 0 24 25" fill="none" xmlns="http://www.w3.org/2000/svg">
<path d="M20.1 9.71945C18.29 9.71945 17.55 8.43945 18.45 6.86945C18.97 5.95945 18.66 4.79945 17.75 4.27945L16.02 3.28945C15.23 2.81945 14.21 3.09945 13.74 3.88945L13.63 4.07945C12.73 5.64945 11.25 5.64945 10.34 4.07945L10.23 3.88945C9.78 3.09945 8.76 2.81945 7.97 3.28945L6.24 4.27945C5.33 4.79945 5.02 5.96945 5.54 6.87945C6.45 8.43945 5.71 9.71945 3.9 9.71945C2.86 9.71945 2 10.5694 2 11.6194V13.3794C2 14.4194 2.85 15.2794 3.9 15.2794C5.71 15.2794 6.45 16.5594 5.54 18.1294C5.02 19.0394 5.33 20.1994 6.24 20.7194L7.97 21.7094C8.76 22.1794 9.78 21.8995 10.25 21.1094L10.36 20.9194C11.26 19.3494 12.74 19.3494 13.65 20.9194L13.76 21.1094C14.23 21.8995 15.25 22.1794 16.04 21.7094L17.77 20.7194C18.68 20.1994 18.99 19.0294 18.47 18.1294C17.56 16.5594 18.3 15.2794 20.11 15.2794C21.15 15.2794 22.01 14.4294 22.01 13.3794V11.6194C22 10.5794 21.15 9.71945 20.1 9.71945ZM12 15.7494C10.21 15.7494 8.75 14.2894 8.75 12.4994C8.75 10.7094 10.21 9.24945 12 9.24945C13.79 9.24945 15.25 10.7094 15.25 12.4994C15.25 14.2894 13.79 15.7494 12 15.7494Z" fill="white"/>
</svg>
