<svg width="24" height="25" viewBox="0 0 24 25" fill="none" xmlns="http://www.w3.org/2000/svg">
<path d="M9 2.5C6.38 2.5 4.25 4.63 4.25 7.25C4.25 9.82 6.26 11.9 8.88 11.99C8.96 11.98 9.04 11.98 9.1 11.99C9.12 11.99 9.13 11.99 9.15 11.99C9.16 11.99 9.16 11.99 9.17 11.99C11.73 11.9 13.74 9.82 13.75 7.25C13.75 4.63 11.62 2.5 9 2.5Z" fill="white"/>
<path d="M14.0809 14.6509C11.2909 12.7909 6.74094 12.7909 3.93094 14.6509C2.66094 15.5009 1.96094 16.6509 1.96094 17.8809C1.96094 19.1109 2.66094 20.2509 3.92094 21.0909C5.32094 22.0309 7.16094 22.5009 9.00094 22.5009C10.8409 22.5009 12.6809 22.0309 14.0809 21.0909C15.3409 20.2409 16.0409 19.1009 16.0409 17.8609C16.0309 16.6309 15.3409 15.4909 14.0809 14.6509Z" fill="white"/>
<path d="M19.9894 7.8401C20.1494 9.7801 18.7694 11.4801 16.8594 11.7101C16.8494 11.7101 16.8494 11.7101 16.8394 11.7101H16.8094C16.7494 11.7101 16.6894 11.7101 16.6394 11.7301C15.6694 11.7801 14.7794 11.4701 14.1094 10.9001C15.1394 9.9801 15.7294 8.6001 15.6094 7.1001C15.5394 6.2901 15.2594 5.5501 14.8394 4.9201C15.2194 4.7301 15.6594 4.6101 16.1094 4.5701C18.0694 4.4001 19.8194 5.8601 19.9894 7.8401Z" fill="white"/>
<path d="M21.9922 17.0904C21.9122 18.0604 21.2922 18.9004 20.2522 19.4704C19.2522 20.0204 17.9922 20.2804 16.7422 20.2504C17.4622 19.6004 17.8822 18.7904 17.9622 17.9304C18.0622 16.6904 17.4722 15.5004 16.2922 14.5504C15.6222 14.0204 14.8422 13.6004 13.9922 13.2904C16.2022 12.6504 18.9822 13.0804 20.6922 14.4604C21.6122 15.2004 22.0822 16.1304 21.9922 17.0904Z" fill="white"/>
</svg>
