<svg width="24" height="25" viewBox="0 0 24 25" fill="none" xmlns="http://www.w3.org/2000/svg">
<path d="M21.0871 7.47953C20.2371 6.53953 18.8171 6.06953 16.7571 6.06953H16.5171V6.02953C16.5171 4.34953 16.5171 2.26953 12.7571 2.26953H11.2371C7.47711 2.26953 7.47711 4.35953 7.47711 6.02953V6.07953H7.23711C5.16711 6.07953 3.75711 6.54953 2.90711 7.48953C1.91711 8.58953 1.94711 10.0695 2.04711 11.0795L2.05711 11.1495L2.13456 11.9628C2.14883 12.1126 2.22949 12.2479 2.35538 12.3303C2.59519 12.4872 2.99653 12.7459 3.23711 12.8795C3.37711 12.9695 3.52711 13.0495 3.67711 13.1295C5.38711 14.0695 7.26711 14.6995 9.17711 15.0095C9.26711 15.9495 9.67711 17.0495 11.8671 17.0495C14.0571 17.0495 14.4871 15.9595 14.5571 14.9895C16.5971 14.6595 18.5671 13.9495 20.3471 12.9095C20.4071 12.8795 20.4471 12.8495 20.4971 12.8195C20.8938 12.5953 21.3054 12.319 21.6806 12.0484C21.7936 11.9668 21.8659 11.8408 21.8812 11.7023L21.8971 11.5595L21.9471 11.0895C21.9571 11.0295 21.9571 10.9795 21.9671 10.9095C22.0471 9.89953 22.0271 8.51953 21.0871 7.47953ZM13.0871 14.3295C13.0871 15.3895 13.0871 15.5495 11.8571 15.5495C10.6271 15.5495 10.6271 15.3595 10.6271 14.3395V13.0795H13.0871V14.3295ZM8.90711 6.06953V6.02953C8.90711 4.32953 8.90711 3.69953 11.2371 3.69953H12.7571C15.0871 3.69953 15.0871 4.33953 15.0871 6.02953V6.07953H8.90711V6.06953Z" fill="white"/>
<path d="M20.8772 14.2349C21.2308 14.0666 21.6381 14.3469 21.6027 14.7369L21.2438 18.6907C21.0338 20.6907 20.2137 22.7307 15.8137 22.7307H8.19375C3.79375 22.7307 2.97375 20.6907 2.76375 18.7007L2.42304 14.9529C2.388 14.5674 2.78595 14.2874 3.13859 14.447C4.27801 14.9625 6.38115 15.8771 7.68032 16.2174C7.84463 16.2604 7.97752 16.378 8.04946 16.5319C8.65643 17.83 9.97286 18.5207 11.8737 18.5207C13.7559 18.5207 15.0889 17.8034 15.6979 16.5021C15.7699 16.3481 15.903 16.2305 16.0674 16.1873C17.4469 15.8243 19.6855 14.8019 20.8772 14.2349Z" fill="white"/>
</svg>
