<svg width="24" height="25" viewBox="0 0 24 25" fill="none" xmlns="http://www.w3.org/2000/svg">
<path d="M5 15.5C4.06 15.5 3.19 15.83 2.5 16.38C1.58 17.11 1 18.24 1 19.5C1 21.71 2.79 23.5 5 23.5C6.01 23.5 6.93 23.12 7.64 22.5C8.47 21.77 9 20.7 9 19.5C9 17.29 7.21 15.5 5 15.5ZM6 19.75C6 20.01 5.86 20.26 5.64 20.39L4.39 21.14C4.27 21.22 4.13 21.25 4 21.25C3.75 21.25 3.5 21.12 3.36 20.89C3.15 20.53 3.26 20.07 3.62 19.86L4.51 19.33V18.25C4.5 17.84 4.84 17.5 5.25 17.5C5.66 17.5 6 17.84 6 18.25V19.75Z" fill="#FEF0E6"/>
<path d="M14.85 4.45078V8.25078H13.35V4.45078C13.35 4.18078 13.11 4.05078 12.95 4.05078C12.9 4.05078 12.85 4.06078 12.8 4.08078L4.87 7.07078C4.34 7.27078 4 7.77078 4 8.34078V9.01078C3.09 9.69078 2.5 10.7808 2.5 12.0108V8.34078C2.5 7.15078 3.23 6.09078 4.34 5.67078L12.28 2.67078C12.5 2.59078 12.73 2.55078 12.95 2.55078C13.95 2.55078 14.85 3.36078 14.85 4.45078Z" fill="#FEF0E6"/>
<path d="M21.4968 15V16C21.4968 16.27 21.2868 16.49 21.0068 16.5H19.5468C19.0168 16.5 18.5368 16.11 18.4968 15.59C18.4668 15.28 18.5868 14.99 18.7868 14.79C18.9668 14.6 19.2168 14.5 19.4868 14.5H20.9968C21.2868 14.51 21.4968 14.73 21.4968 15Z" fill="#FEF0E6"/>
<path d="M19.48 13.45H20.5C21.05 13.45 21.5 13 21.5 12.45V12.01C21.5 9.94 19.81 8.25 17.74 8.25H6.26C5.41 8.25 4.63 8.53 4 9.01C3.09 9.69 2.5 10.78 2.5 12.01V13.79C2.5 14.17 2.9 14.41 3.26 14.29C3.82 14.1 4.41 14 5 14C8.03 14 10.5 16.47 10.5 19.5C10.5 20.22 10.31 21.01 10.01 21.71C9.85 22.07 10.1 22.5 10.49 22.5H17.74C19.81 22.5 21.5 20.81 21.5 18.74V18.55C21.5 18 21.05 17.55 20.5 17.55H19.63C18.67 17.55 17.75 16.96 17.5 16.03C17.3 15.27 17.54 14.53 18.04 14.05C18.41 13.67 18.92 13.45 19.48 13.45ZM14 13.25H9C8.59 13.25 8.25 12.91 8.25 12.5C8.25 12.09 8.59 11.75 9 11.75H14C14.41 11.75 14.75 12.09 14.75 12.5C14.75 12.91 14.41 13.25 14 13.25Z" fill="#FEF0E6"/>
</svg>
